<mxfile host="app.diagrams.net" modified="2021-10-09T03:12:19.848Z" agent="5.0 (Macintosh; Intel Mac OS X 10_15_7) AppleWebKit/537.36 (KHTML, like Gecko) Chrome/94.0.4606.61 Safari/537.36" etag="KuRiBf0qeRyqnuQPDbVv" version="15.4.3" type="github">
  <diagram id="U1JF1a8yleO5Nu3D4Tec" name="Page-1">
    <mxGraphModel dx="1666" dy="680" grid="1" gridSize="10" guides="1" tooltips="1" connect="1" arrows="1" fold="1" page="1" pageScale="1" pageWidth="827" pageHeight="1169" math="0" shadow="0">
      <root>
        <mxCell id="0" />
        <mxCell id="1" parent="0" />
        <mxCell id="7hZ_vL88aZJJkCajUHEH-1" value="" style="rounded=0;whiteSpace=wrap;html=1;" vertex="1" parent="1">
          <mxGeometry x="80" y="300" width="680" height="510" as="geometry" />
        </mxCell>
        <mxCell id="9FX9xKna8-z17BfK_glb-8" value="" style="edgeStyle=orthogonalEdgeStyle;rounded=0;orthogonalLoop=1;jettySize=auto;html=1;" parent="1" source="9FX9xKna8-z17BfK_glb-6" target="9FX9xKna8-z17BfK_glb-7" edge="1">
          <mxGeometry relative="1" as="geometry" />
        </mxCell>
        <mxCell id="9FX9xKna8-z17BfK_glb-6" value="建图任务" style="ellipse;whiteSpace=wrap;html=1;aspect=fixed;" parent="1" vertex="1">
          <mxGeometry x="154" y="540" width="80" height="80" as="geometry" />
        </mxCell>
        <mxCell id="9FX9xKna8-z17BfK_glb-10" value="" style="edgeStyle=orthogonalEdgeStyle;rounded=0;orthogonalLoop=1;jettySize=auto;html=1;" parent="1" source="9FX9xKna8-z17BfK_glb-7" target="9FX9xKna8-z17BfK_glb-9" edge="1">
          <mxGeometry relative="1" as="geometry" />
        </mxCell>
        <mxCell id="9FX9xKna8-z17BfK_glb-7" value="上传文件&lt;br&gt;任务" style="ellipse;whiteSpace=wrap;html=1;aspect=fixed;" parent="1" vertex="1">
          <mxGeometry x="314" y="540" width="80" height="80" as="geometry" />
        </mxCell>
        <mxCell id="9FX9xKna8-z17BfK_glb-12" value="" style="edgeStyle=orthogonalEdgeStyle;rounded=0;orthogonalLoop=1;jettySize=auto;html=1;" parent="1" source="9FX9xKna8-z17BfK_glb-9" target="9FX9xKna8-z17BfK_glb-11" edge="1">
          <mxGeometry relative="1" as="geometry" />
        </mxCell>
        <mxCell id="9FX9xKna8-z17BfK_glb-9" value="格式转换+分隔任务" style="ellipse;whiteSpace=wrap;html=1;aspect=fixed;" parent="1" vertex="1">
          <mxGeometry x="474" y="540" width="80" height="80" as="geometry" />
        </mxCell>
        <mxCell id="9FX9xKna8-z17BfK_glb-19" style="edgeStyle=orthogonalEdgeStyle;rounded=0;orthogonalLoop=1;jettySize=auto;html=1;exitX=0.5;exitY=0;exitDx=0;exitDy=0;entryX=0.5;entryY=1;entryDx=0;entryDy=0;" parent="1" source="9FX9xKna8-z17BfK_glb-11" target="9FX9xKna8-z17BfK_glb-18" edge="1">
          <mxGeometry relative="1" as="geometry" />
        </mxCell>
        <mxCell id="9FX9xKna8-z17BfK_glb-23" value="监听更新地图的任务状态" style="edgeLabel;html=1;align=center;verticalAlign=middle;resizable=0;points=[];" parent="9FX9xKna8-z17BfK_glb-19" vertex="1" connectable="0">
          <mxGeometry x="0.04" relative="1" as="geometry">
            <mxPoint as="offset" />
          </mxGeometry>
        </mxCell>
        <mxCell id="9FX9xKna8-z17BfK_glb-26" value="" style="edgeStyle=orthogonalEdgeStyle;rounded=0;orthogonalLoop=1;jettySize=auto;html=1;" parent="1" source="9FX9xKna8-z17BfK_glb-11" target="9FX9xKna8-z17BfK_glb-25" edge="1">
          <mxGeometry relative="1" as="geometry" />
        </mxCell>
        <mxCell id="9FX9xKna8-z17BfK_glb-11" value="地图更新&lt;br&gt;任务" style="ellipse;whiteSpace=wrap;html=1;aspect=fixed;" parent="1" vertex="1">
          <mxGeometry x="634" y="540" width="80" height="80" as="geometry" />
        </mxCell>
        <mxCell id="9FX9xKna8-z17BfK_glb-14" style="edgeStyle=orthogonalEdgeStyle;rounded=0;orthogonalLoop=1;jettySize=auto;html=1;exitX=0.5;exitY=1;exitDx=0;exitDy=0;" parent="1" source="9FX9xKna8-z17BfK_glb-13" target="9FX9xKna8-z17BfK_glb-6" edge="1">
          <mxGeometry relative="1" as="geometry" />
        </mxCell>
        <mxCell id="9FX9xKna8-z17BfK_glb-21" value="下发建图任务&lt;br&gt;带上建图版本" style="edgeLabel;html=1;align=center;verticalAlign=middle;resizable=0;points=[];" parent="9FX9xKna8-z17BfK_glb-14" vertex="1" connectable="0">
          <mxGeometry x="-0.28" y="-2" relative="1" as="geometry">
            <mxPoint as="offset" />
          </mxGeometry>
        </mxCell>
        <mxCell id="7hZ_vL88aZJJkCajUHEH-13" value="查询最新的建图版本" style="edgeStyle=orthogonalEdgeStyle;rounded=0;orthogonalLoop=1;jettySize=auto;html=1;exitX=1;exitY=0.5;exitDx=0;exitDy=0;entryX=0;entryY=0.5;entryDx=0;entryDy=0;entryPerimeter=0;" edge="1" parent="1" source="9FX9xKna8-z17BfK_glb-13" target="9FX9xKna8-z17BfK_glb-15">
          <mxGeometry relative="1" as="geometry" />
        </mxCell>
        <mxCell id="9FX9xKna8-z17BfK_glb-13" value="任务调度" style="ellipse;whiteSpace=wrap;html=1;aspect=fixed;" parent="1" vertex="1">
          <mxGeometry x="154" y="360" width="80" height="80" as="geometry" />
        </mxCell>
        <mxCell id="9FX9xKna8-z17BfK_glb-15" value="DB" style="shape=cylinder3;whiteSpace=wrap;html=1;boundedLbl=1;backgroundOutline=1;size=15;" parent="1" vertex="1">
          <mxGeometry x="414" y="360" width="60" height="80" as="geometry" />
        </mxCell>
        <mxCell id="9FX9xKna8-z17BfK_glb-20" style="edgeStyle=orthogonalEdgeStyle;rounded=0;orthogonalLoop=1;jettySize=auto;html=1;exitX=0;exitY=0.5;exitDx=0;exitDy=0;" parent="1" source="9FX9xKna8-z17BfK_glb-18" target="9FX9xKna8-z17BfK_glb-15" edge="1">
          <mxGeometry relative="1" as="geometry" />
        </mxCell>
        <mxCell id="9FX9xKna8-z17BfK_glb-24" value="更新建图版本状态&lt;br&gt;状态为:已完成" style="edgeLabel;html=1;align=center;verticalAlign=middle;resizable=0;points=[];" parent="9FX9xKna8-z17BfK_glb-20" vertex="1" connectable="0">
          <mxGeometry x="-0.1125" relative="1" as="geometry">
            <mxPoint as="offset" />
          </mxGeometry>
        </mxCell>
        <mxCell id="9FX9xKna8-z17BfK_glb-18" value="地图更新任务监听" style="ellipse;whiteSpace=wrap;html=1;aspect=fixed;" parent="1" vertex="1">
          <mxGeometry x="634" y="360" width="80" height="80" as="geometry" />
        </mxCell>
        <mxCell id="9FX9xKna8-z17BfK_glb-25" value="自动&lt;br&gt;着色任务下发" style="ellipse;whiteSpace=wrap;html=1;aspect=fixed;" parent="1" vertex="1">
          <mxGeometry x="634" y="700" width="80" height="80" as="geometry" />
        </mxCell>
        <mxCell id="7hZ_vL88aZJJkCajUHEH-9" value="" style="edgeStyle=orthogonalEdgeStyle;rounded=0;orthogonalLoop=1;jettySize=auto;html=1;" edge="1" parent="1" source="7hZ_vL88aZJJkCajUHEH-2" target="7hZ_vL88aZJJkCajUHEH-8">
          <mxGeometry relative="1" as="geometry" />
        </mxCell>
        <mxCell id="7hZ_vL88aZJJkCajUHEH-10" value="调用建图任务接口" style="edgeLabel;html=1;align=center;verticalAlign=middle;resizable=0;points=[];" vertex="1" connectable="0" parent="7hZ_vL88aZJJkCajUHEH-9">
          <mxGeometry x="-0.14" y="2" relative="1" as="geometry">
            <mxPoint as="offset" />
          </mxGeometry>
        </mxCell>
        <mxCell id="7hZ_vL88aZJJkCajUHEH-2" value="前端" style="rounded=0;whiteSpace=wrap;html=1;" vertex="1" parent="1">
          <mxGeometry x="264" y="20" width="120" height="60" as="geometry" />
        </mxCell>
        <mxCell id="7hZ_vL88aZJJkCajUHEH-6" style="edgeStyle=orthogonalEdgeStyle;rounded=0;orthogonalLoop=1;jettySize=auto;html=1;exitX=0;exitY=0.5;exitDx=0;exitDy=0;" edge="1" parent="1" source="7hZ_vL88aZJJkCajUHEH-8" target="9FX9xKna8-z17BfK_glb-13">
          <mxGeometry relative="1" as="geometry">
            <mxPoint x="320" y="210" as="sourcePoint" />
          </mxGeometry>
        </mxCell>
        <mxCell id="7hZ_vL88aZJJkCajUHEH-12" value="触发任务调度" style="edgeLabel;html=1;align=center;verticalAlign=middle;resizable=0;points=[];" vertex="1" connectable="0" parent="7hZ_vL88aZJJkCajUHEH-6">
          <mxGeometry x="0.2174" y="1" relative="1" as="geometry">
            <mxPoint as="offset" />
          </mxGeometry>
        </mxCell>
        <mxCell id="7hZ_vL88aZJJkCajUHEH-7" style="edgeStyle=orthogonalEdgeStyle;rounded=0;orthogonalLoop=1;jettySize=auto;html=1;entryX=0.5;entryY=0;entryDx=0;entryDy=0;entryPerimeter=0;" edge="1" parent="1" source="7hZ_vL88aZJJkCajUHEH-8" target="9FX9xKna8-z17BfK_glb-15">
          <mxGeometry relative="1" as="geometry">
            <mxPoint x="360" y="210" as="sourcePoint" />
            <Array as="points">
              <mxPoint x="444" y="210" />
            </Array>
          </mxGeometry>
        </mxCell>
        <mxCell id="7hZ_vL88aZJJkCajUHEH-11" value="将建图版本记录写库&lt;br&gt;状态为:未完成" style="edgeLabel;html=1;align=center;verticalAlign=middle;resizable=0;points=[];" vertex="1" connectable="0" parent="7hZ_vL88aZJJkCajUHEH-7">
          <mxGeometry x="0.22" relative="1" as="geometry">
            <mxPoint as="offset" />
          </mxGeometry>
        </mxCell>
        <mxCell id="7hZ_vL88aZJJkCajUHEH-8" value="后端接口" style="rounded=0;whiteSpace=wrap;html=1;" vertex="1" parent="1">
          <mxGeometry x="264" y="180" width="120" height="60" as="geometry" />
        </mxCell>
      </root>
    </mxGraphModel>
  </diagram>
</mxfile>
